<svg width="37" height="37" viewBox="0 0 37 37" fill="none" xmlns="http://www.w3.org/2000/svg">
<path d="M17.998 8.74414C15.5453 8.74414 13.193 9.71848 11.4587 11.4528C9.72434 13.1872 8.75 15.5394 8.75 17.9921C8.75 20.4449 9.72434 22.7971 11.4587 24.5315C13.193 26.2658 15.5453 27.2401 17.998 27.2401C20.4507 27.2401 22.803 26.2658 24.5373 24.5315C26.2717 22.7971 27.246 20.4449 27.246 17.9921C27.246 15.5394 26.2717 13.1872 24.5373 11.4528C22.803 9.71848 20.4507 8.74414 17.998 8.74414V8.74414ZM17.998 23.9981C16.4046 23.9981 14.8764 23.3652 13.7497 22.2384C12.623 21.1117 11.99 19.5836 11.99 17.9901C11.99 16.3967 12.623 14.8686 13.7497 13.7418C14.8764 12.6151 16.4046 11.9821 17.998 11.9821C19.5914 11.9821 21.1196 12.6151 22.2463 13.7418C23.373 14.8686 24.006 16.3967 24.006 17.9901C24.006 19.5836 23.373 21.1117 22.2463 22.2384C21.1196 23.3652 19.5914 23.9981 17.998 23.9981V23.9981Z" fill="#1D1E22"/>
<path d="M27.6121 10.56C28.8028 10.56 29.7681 9.59477 29.7681 8.40405C29.7681 7.21332 28.8028 6.24805 27.6121 6.24805C26.4213 6.24805 25.4561 7.21332 25.4561 8.40405C25.4561 9.59477 26.4213 10.56 27.6121 10.56Z" fill="#1D1E22"/>
<path d="M35.0659 6.212C34.6029 5.01636 33.8954 3.93057 32.9886 3.02412C32.0818 2.11767 30.9957 1.41054 29.7999 0.948C28.4006 0.422714 26.9223 0.138682 25.4279 0.108C23.5019 0.0239998 22.8919 0 18.0079 0C13.1239 0 12.4979 -2.01166e-07 10.5879 0.108C9.09468 0.137114 7.61742 0.421203 6.2199 0.948C5.02378 1.41 3.93743 2.11694 3.03057 3.02346C2.12371 3.92997 1.41636 5.01605 0.953906 6.212C0.428516 7.61123 0.145135 9.08968 0.115906 10.584C0.0299062 12.508 0.00390625 13.118 0.00390625 18.004C0.00390625 22.888 0.00390624 23.51 0.115906 25.424C0.145906 26.92 0.427906 28.396 0.953906 29.798C1.41766 30.9935 2.1257 32.0792 3.03278 32.9856C3.93986 33.892 5.02603 34.5992 6.2219 35.062C7.61677 35.6084 9.09465 35.9128 10.5919 35.962C12.5179 36.046 13.1279 36.072 18.0119 36.072C22.8959 36.072 23.5219 36.072 25.4319 35.962C26.9261 35.9316 28.4044 35.6483 29.8039 35.124C30.9994 34.6604 32.0851 33.9527 32.9918 33.046C33.8985 32.1393 34.6063 31.0535 35.0699 29.858C35.5959 28.458 35.8779 26.982 35.9079 25.486C35.9939 23.562 36.0199 22.952 36.0199 18.066C36.0199 13.18 36.0199 12.56 35.9079 10.646C35.8846 9.13055 35.5998 7.6305 35.0659 6.212V6.212ZM32.6299 25.276C32.617 26.4286 32.4066 27.5705 32.0079 28.652C31.7075 29.4297 31.2477 30.136 30.658 30.7254C30.0683 31.3147 29.3618 31.7741 28.5839 32.074C27.5144 32.4709 26.3846 32.6813 25.2439 32.696C23.3439 32.784 22.8079 32.806 17.9359 32.806C13.0599 32.806 12.5619 32.806 10.6259 32.696C9.48576 32.6821 8.35655 32.4716 7.2879 32.074C6.50728 31.776 5.79791 31.3174 5.20568 30.7279C4.61346 30.1385 4.15158 29.4312 3.84991 28.652C3.4568 27.5821 3.24653 26.4537 3.2279 25.314C3.1419 23.414 3.12191 22.878 3.12191 18.006C3.12191 13.132 3.12191 12.634 3.2279 10.696C3.24083 9.54405 3.45122 8.40284 3.84991 7.322C4.45991 5.744 5.7099 4.502 7.2879 3.898C8.35708 3.50228 9.48595 3.29193 10.6259 3.276C12.5279 3.19 13.0619 3.166 17.9359 3.166C22.8099 3.166 23.3099 3.166 25.2439 3.276C26.3847 3.28972 27.5146 3.50014 28.5839 3.898C29.3618 4.19855 30.0682 4.65841 30.6578 5.24806C31.2475 5.83772 31.7074 6.54415 32.0079 7.322C32.401 8.3919 32.6113 9.52032 32.6299 10.66C32.7159 12.562 32.7379 13.096 32.7379 17.97C32.7379 22.842 32.7379 23.366 32.6519 25.278H32.6299V25.276Z" fill="#1D1E22"/>
</svg>
