<svg width="31" height="31" viewBox="0 0 31 31" fill="none" xmlns="http://www.w3.org/2000/svg">
<path d="M7.75 2.58325L3.875 7.74992V25.8333C3.875 26.5184 4.14717 27.1755 4.63164 27.6599C5.11611 28.1444 5.77319 28.4166 6.45833 28.4166H24.5417C25.2268 28.4166 25.8839 28.1444 26.3684 27.6599C26.8528 27.1755 27.125 26.5184 27.125 25.8333V7.74992L23.25 2.58325H7.75Z" stroke="white" stroke-width="2" stroke-linecap="round" stroke-linejoin="round"/>
<path d="M3.875 7.75H27.125" stroke="white" stroke-width="2" stroke-linecap="round" stroke-linejoin="round"/>
<path d="M20.6666 12.9167C20.6666 14.287 20.1223 15.6012 19.1534 16.5701C18.1844 17.5391 16.8703 18.0834 15.5 18.0834C14.1297 18.0834 12.8155 17.5391 11.8466 16.5701C10.8777 15.6012 10.3333 14.287 10.3333 12.9167" stroke="white" stroke-width="2" stroke-linecap="round" stroke-linejoin="round"/>
</svg>
