<svg width="37" height="37" viewBox="0 0 37 37" fill="none" xmlns="http://www.w3.org/2000/svg">
<path fill-rule="evenodd" clip-rule="evenodd" d="M30.806 5.26606C29.1427 3.59183 27.1637 2.26429 24.9837 1.36036C22.8037 0.456421 20.466 -0.00594047 18.106 5.76183e-05C8.21 5.76183e-05 0.154 8.05406 0.15 17.9541C0.15 21.1181 0.975999 24.2061 2.546 26.9301L0 36.2321L9.518 33.7341C12.1508 35.1672 15.1004 35.9187 18.098 35.9201H18.106C28 35.9201 36.056 27.8661 36.06 17.9661C36.0668 15.607 35.606 13.27 34.7042 11.0902C33.8023 8.91031 32.4774 6.9308 30.806 5.26606V5.26606ZM18.106 32.8901H18.1C15.427 32.8903 12.8033 32.1712 10.504 30.8081L9.96 30.4841L4.312 31.9661L5.818 26.4601L5.464 25.8961C3.96958 23.5169 3.17847 20.7636 3.182 17.9541C3.186 9.72606 9.88 3.03206 18.112 3.03206C20.0725 3.0277 22.0144 3.41222 23.8253 4.16336C25.6362 4.9145 27.2802 6.01734 28.662 7.40806C30.0512 8.79214 31.1524 10.4378 31.9018 12.2501C32.6512 14.0623 33.034 16.005 33.028 17.9661C33.024 26.1941 26.33 32.8901 18.106 32.8901ZM26.292 21.7121C25.842 21.4861 23.638 20.4021 23.226 20.2521C22.816 20.1021 22.518 20.0281 22.218 20.4761C21.918 20.9241 21.058 21.9341 20.796 22.2341C20.534 22.5341 20.272 22.5701 19.824 22.3461C19.376 22.1221 17.93 21.6481 16.216 20.1201C14.882 18.9301 13.982 17.4621 13.72 17.0121C13.458 16.5621 13.692 16.3201 13.918 16.0961C14.12 15.8961 14.366 15.5721 14.59 15.3101C14.814 15.0481 14.888 14.8621 15.038 14.5621C15.188 14.2621 15.114 14.0001 15 13.7761C14.888 13.5501 13.99 11.3421 13.616 10.4441C13.254 9.57406 12.884 9.69006 12.608 9.67806C12.3222 9.66637 12.0361 9.66103 11.75 9.66206C11.5225 9.66785 11.2987 9.72059 11.0925 9.81695C10.8864 9.91332 10.7023 10.0512 10.552 10.2221C10.14 10.6721 8.982 11.7561 8.982 13.9641C8.982 16.1721 10.59 18.3061 10.814 18.6061C11.038 18.9061 13.978 23.4361 18.478 25.3801C19.55 25.8421 20.386 26.1181 21.036 26.3261C22.11 26.6681 23.088 26.6181 23.862 26.5041C24.724 26.3761 26.516 25.4201 26.89 24.3721C27.264 23.3241 27.264 22.4261 27.152 22.2381C27.04 22.0501 26.738 21.9361 26.292 21.7121" fill="#1D1E22"/>
</svg>
